<svg width="78" height="72" viewBox="0 0 78 72" fill="none" xmlns="http://www.w3.org/2000/svg">
<path d="M72.8931 31H69.0011C68.7794 30.1974 68.3024 29.4889 67.6423 28.9814C66.9822 28.474 66.1748 28.1953 65.3422 28.1875H61.1875V18.0275C61.1922 17.8374 61.1462 17.6495 61.0544 17.4831C60.9625 17.3166 60.828 17.1776 60.6647 17.0803L31.3558 0.15184C31.1906 0.0558257 31.0029 0.00524902 30.8119 0.00524902C30.6208 0.00524902 30.4332 0.0558257 30.268 0.15184L0.950006 17.0803C0.784117 17.1764 0.646507 17.3146 0.551045 17.4809C0.455583 17.6472 0.405642 17.8357 0.406256 18.0275V51.8845C0.40626 52.0765 0.456801 52.2651 0.552797 52.4314C0.648794 52.5976 0.786864 52.7357 0.953131 52.8317L30.2741 69.7601C30.4403 69.8561 30.6289 69.9067 30.8209 69.9067C31.0179 69.9068 31.2116 69.8563 31.3834 69.7601L46.8125 60.8606V67.294C46.8109 67.9065 46.9308 68.5133 47.1653 69.0791C47.3998 69.645 47.7442 70.1587 48.1786 70.5906C48.6129 71.0224 49.1286 71.3638 49.6958 71.595C50.2631 71.8262 50.8705 71.9426 51.483 71.9375H72.8931C73.5072 71.9432 74.1163 71.8274 74.6855 71.5968C75.2546 71.3661 75.7726 71.0252 76.2095 70.5937C76.6463 70.1621 76.9936 69.6484 77.2311 69.0821C77.4687 68.5158 77.5919 67.9081 77.5938 67.294V35.7159C77.593 34.468 77.098 33.2713 76.2171 32.3875C75.3361 31.5036 74.141 31.0048 72.8931 31ZM65.3811 30.375C65.8022 30.375 66.206 30.5422 66.5037 30.84C66.8015 31.1377 66.9688 31.5416 66.9688 31.9626V32.0686C66.9688 32.4896 66.8015 32.8935 66.5037 33.1912C66.206 33.4889 65.8022 33.6562 65.3811 33.6562H59.0252C58.6041 33.6562 58.2003 33.4889 57.9025 33.1912C57.6048 32.8935 57.4375 32.4896 57.4375 32.0686V31.9626C57.4375 31.5416 57.6048 31.1377 57.9025 30.84C58.2003 30.5422 58.6041 30.375 59.0252 30.375H65.3811ZM30.8209 2.362L43.0044 9.39606L15.8728 25.0604L3.68954 18.0264L30.8209 2.362ZM29.7813 66.9184L2.59376 51.2529V19.9195L29.7813 35.585V66.9184ZM30.8209 33.6906L18.0603 26.3232L45.1919 10.659L57.9531 18.0264L30.8209 33.6906ZM46.8125 35.7159V58.3348L31.9688 66.9184V35.585L59 19.9195V28.1875H59.0339C58.2013 28.1953 57.3939 28.474 56.7338 28.9814C56.0737 29.4888 55.5967 30.1974 55.375 31H51.483C50.2383 31.006 49.0469 31.5063 48.171 32.3907C47.2952 33.2751 46.8065 34.4712 46.8125 35.7159ZM75.4063 67.294C75.4048 67.621 75.3383 67.9443 75.2108 68.2454C75.0832 68.5464 74.8971 68.8191 74.6633 69.0476C74.4295 69.2761 74.1526 69.4559 73.8487 69.5764C73.5448 69.697 73.22 69.756 72.8931 69.75H51.483C51.1577 69.7555 50.8346 69.6959 50.5326 69.5747C50.2307 69.4536 49.956 69.2733 49.7246 69.0445C49.4933 68.8157 49.3101 68.543 49.1856 68.2424C49.0612 67.9418 48.9981 67.6194 49 67.294V35.7159C48.9967 35.3868 49.0583 35.0602 49.1814 34.7549C49.3045 34.4496 49.4865 34.1716 49.7171 33.9368C49.9478 33.7019 50.2224 33.5148 50.5254 33.3863C50.8284 33.2577 51.1538 33.1901 51.483 33.1875H55.4177C55.6522 33.9617 56.1314 34.639 56.7834 35.1179C57.4354 35.5968 58.225 35.8514 59.0339 35.8437H65.3422C66.1511 35.8515 66.9407 35.5968 67.5927 35.1179C68.2446 34.639 68.7238 33.9617 68.9583 33.1875H72.8931C73.561 33.1917 74.2001 33.4599 74.6709 33.9336C75.1418 34.4073 75.4061 35.048 75.4063 35.7159V67.294Z" fill="#F5AC01"/>
<path d="M52.7421 46.7812H53.8869C54.177 46.7812 54.4552 46.666 54.6603 46.4609C54.8655 46.2558 54.9807 45.9776 54.9807 45.6875C54.9807 45.3974 54.8655 45.1192 54.6603 44.9141C54.4552 44.709 54.177 44.5938 53.8869 44.5938H53.8438V41.625H56.8605C56.9292 41.8449 57.0681 42.0362 57.2559 42.1697C57.4437 42.3031 57.6701 42.3712 57.9004 42.3636C58.1908 42.3644 58.4697 42.2499 58.6759 42.0454C58.882 41.8408 58.9986 41.5628 59.0001 41.2723V40.5364C58.9976 40.2446 58.8801 39.9655 58.6731 39.7597C58.4661 39.554 58.1863 39.4382 57.8945 39.4375H52.7421C52.5986 39.4382 52.4567 39.4673 52.3244 39.5229C52.1922 39.5786 52.0722 39.6597 51.9713 39.7618C51.8705 39.8639 51.7908 39.9848 51.7367 40.1177C51.6826 40.2507 51.6553 40.3929 51.6563 40.5364V45.6887C51.6555 45.8319 51.6829 45.9738 51.7371 46.1063C51.7913 46.2388 51.8711 46.3593 51.972 46.4608C52.0729 46.5623 52.1929 46.6429 52.3251 46.6979C52.4572 46.7529 52.599 46.7812 52.7421 46.7812ZM52.7501 56.7812H57.9063C58.1964 56.7812 58.4746 56.666 58.6797 56.4609C58.8848 56.2558 59.0001 55.9776 59.0001 55.6875V50.5312C59.0001 50.2412 58.8848 49.963 58.6797 49.7579C58.4746 49.5527 58.1964 49.4375 57.9063 49.4375H52.7501C52.46 49.4375 52.1818 49.5527 51.9767 49.7579C51.7716 49.963 51.6563 50.2412 51.6563 50.5312V55.6875C51.6563 55.9776 51.7716 56.2558 51.9767 56.4609C52.1818 56.666 52.46 56.7812 52.7501 56.7812ZM53.8438 51.625H56.8126V54.5938H53.8438V51.625ZM53.8871 64.5938H53.8438V61.625H56.8015C56.8071 61.9126 56.9253 62.1866 57.1306 62.3881C57.3359 62.5896 57.612 62.7027 57.8997 62.7029C58.1874 62.7032 58.4637 62.5908 58.6694 62.3896C58.8752 62.1885 58.9939 61.9148 59.0001 61.6272V60.5733C58.999 60.2776 58.883 59.9939 58.6768 59.782C58.4705 59.5701 58.19 59.4466 57.8945 59.4375H52.7421C52.4486 59.4474 52.1706 59.5718 51.9677 59.784C51.7647 59.9963 51.653 60.2796 51.6563 60.5733V65.7256C51.6562 65.8668 51.6844 66.0067 51.7393 66.1368C51.7942 66.2669 51.8746 66.3847 51.9759 66.4831C52.0772 66.5816 52.1972 66.6587 52.3288 66.7099C52.4604 66.7611 52.6009 66.7854 52.7421 66.7812H53.8871C54.1772 66.7812 54.4554 66.666 54.6605 66.4609C54.8656 66.2558 54.9809 65.9776 54.9809 65.6875C54.9809 65.3974 54.8656 65.1192 54.6605 64.9141C54.4554 64.709 54.1772 64.5938 53.8871 64.5938Z" fill="#F5AC01"/>
<path d="M60.4129 40.7799L57.2098 43.9831L56.2354 43.0085C56.1338 42.907 56.0133 42.8264 55.8806 42.7714C55.7478 42.7165 55.6056 42.6882 55.462 42.6882C55.3183 42.6882 55.1761 42.7165 55.0434 42.7714C54.9107 42.8264 54.7901 42.907 54.6885 43.0085C54.587 43.1101 54.5064 43.2307 54.4514 43.3634C54.3965 43.4961 54.3682 43.6383 54.3682 43.782C54.3682 43.9256 54.3965 44.0679 54.4514 44.2006C54.5064 44.3333 54.587 44.4538 54.6885 44.5554L56.4365 46.3032C56.5381 46.4048 56.6586 46.4854 56.7914 46.5403C56.9241 46.5953 57.0663 46.6236 57.2099 46.6236C57.3536 46.6236 57.4958 46.5953 57.6285 46.5403C57.7612 46.4854 57.8818 46.4048 57.9834 46.3032L61.9602 42.3264C62.1654 42.1212 62.2806 41.843 62.2806 41.5529C62.2806 41.2628 62.1654 40.9846 61.9602 40.7795C61.7551 40.5743 61.4769 40.4591 61.1868 40.4591C60.8967 40.4591 60.6185 40.5743 60.4134 40.7795L60.4129 40.7799ZM60.4129 60.9751L57.2098 64.1782L56.2354 63.2037C56.1338 63.1021 56.0133 63.0216 55.8806 62.9666C55.7478 62.9116 55.6056 62.8833 55.462 62.8833C55.3183 62.8833 55.1761 62.9116 55.0434 62.9666C54.9107 63.0216 54.7901 63.1021 54.6885 63.2037C54.587 63.3053 54.5064 63.4258 54.4514 63.5586C54.3965 63.6913 54.3682 63.8335 54.3682 63.9771C54.3682 64.1208 54.3965 64.263 54.4514 64.3957C54.5064 64.5284 54.587 64.649 54.6885 64.7506L56.4365 66.4984C56.5381 66.6 56.6586 66.6805 56.7914 66.7355C56.9241 66.7905 57.0663 66.8188 57.2099 66.8188C57.3536 66.8188 57.4958 66.7905 57.6285 66.7355C57.7612 66.6805 57.8818 66.6 57.9834 66.4984L61.9602 62.5215C62.1654 62.3164 62.2806 62.0382 62.2806 61.7481C62.2806 61.458 62.1654 61.1798 61.9602 60.9746C61.7551 60.7695 61.4769 60.6543 61.1868 60.6543C60.8967 60.6543 60.6185 60.7695 60.4134 60.9746L60.4129 60.9751ZM71.6342 42.0937H64.7645C64.4744 42.0937 64.1962 42.2089 63.9911 42.414C63.786 42.6192 63.6707 42.8974 63.6707 43.1874C63.6707 43.4775 63.786 43.7557 63.9911 43.9608C64.1962 44.166 64.4744 44.2812 64.7645 44.2812H71.6342C71.9242 44.2812 72.2024 44.166 72.4076 43.9608C72.6127 43.7557 72.7279 43.4775 72.7279 43.1874C72.7279 42.8974 72.6127 42.6192 72.4076 42.414C72.2024 42.2089 71.9242 42.0937 71.6342 42.0937ZM71.6342 52.0937H64.7645C64.4744 52.0937 64.1962 52.2089 63.9911 52.414C63.786 52.6192 63.6707 52.8974 63.6707 53.1874C63.6707 53.4775 63.786 53.7557 63.9911 53.9608C64.1962 54.166 64.4744 54.2812 64.7645 54.2812H71.6342C71.9242 54.2812 72.2024 54.166 72.4076 53.9608C72.6127 53.7557 72.7279 53.4775 72.7279 53.1874C72.7279 52.8974 72.6127 52.6192 72.4076 52.414C72.2024 52.2089 71.9242 52.0937 71.6342 52.0937ZM71.6342 62.0937H64.7645C64.4744 62.0937 64.1962 62.2089 63.9911 62.414C63.786 62.6192 63.6707 62.8974 63.6707 63.1874C63.6707 63.4775 63.786 63.7557 63.9911 63.9608C64.1962 64.166 64.4744 64.2812 64.7645 64.2812H71.6342C71.9242 64.2812 72.2024 64.166 72.4076 63.9608C72.6127 63.7557 72.7279 63.4775 72.7279 63.1874C72.7279 62.8974 72.6127 62.6192 72.4076 62.414C72.2024 62.2089 71.9242 62.0937 71.6342 62.0937Z" fill="#F5AC01"/>
</svg>
